<?xml version="1.0" encoding="UTF-8" standalone="no"?>
<!-- Created with Inkscape (http://www.inkscape.org/) -->

<svg
   width="48"
   height="48"
   viewBox="0 0 12.7 12.7"
   version="1.1"
   id="svg1"
   inkscape:version="1.4.2 (ebf0e940d0, 2025-05-08)"
   sodipodi:docname="logo.svg"
   xmlns:inkscape="http://www.inkscape.org/namespaces/inkscape"
   xmlns:sodipodi="http://sodipodi.sourceforge.net/DTD/sodipodi-0.dtd"
   xmlns="http://www.w3.org/2000/svg"
   xmlns:svg="http://www.w3.org/2000/svg">
  <sodipodi:namedview
     id="namedview1"
     pagecolor="#ffffff"
     bordercolor="#000000"
     borderopacity="0.25"
     inkscape:showpageshadow="2"
     inkscape:pageopacity="0.0"
     inkscape:pagecheckerboard="0"
     inkscape:deskcolor="#d1d1d1"
     inkscape:document-units="mm"
     inkscape:zoom="6.3385417"
     inkscape:cx="-13.015612"
     inkscape:cy="26.031224"
     inkscape:window-width="1920"
     inkscape:window-height="1059"
     inkscape:window-x="0"
     inkscape:window-y="0"
     inkscape:window-maximized="0"
     inkscape:current-layer="svg1" />
  <defs
     id="defs1">
    <rect
       x="5.1265241"
       y="25.102291"
       width="66.291261"
       height="68.059028"
       id="rect2" />
    <rect
       x="5.1265241"
       y="25.102291"
       width="66.291261"
       height="68.059028"
       id="rect3" />
  </defs>
  <g
     id="text5"
     style="font-size:4.93889px;font-family:'Ubuntu Mono';-inkscape-font-specification:'Ubuntu Mono, Normal';stroke-width:2.64583;stroke-opacity:0"
     aria-label="ERC-&#10;8270">
    <path
       d="M 1.8605492,4.8263512 V 1.7691783 H 3.574344 V 2.1149006 H 2.2655381 V 3.0532897 H 3.4113606 V 3.399012 H 2.2655381 V 4.4806289 H 3.6829996 V 4.8263512 Z M 6.0092167,2.7026285 q 0,0.2815167 -0.1481667,0.4988279 Q 5.7128833,3.4138286 5.4609999,3.532362 5.5350833,3.6508954 5.6239833,3.8040009 5.7178222,3.9521676 5.8116611,4.1250288 5.9055,4.292951 5.9944001,4.47569 6.088239,4.65349 6.1672612,4.8263512 H 5.7326389 Q 5.5844722,4.4707511 5.4066722,4.1447843 5.233811,3.8188176 5.0708276,3.6163231 q -0.029633,0.00494 -0.0889,0.00494 -0.054328,0 -0.074083,0 H 4.562122 V 4.8263512 H 4.1521941 V 1.8136283 q 0.074083,-0.019756 0.1679223,-0.034572 0.098778,-0.014817 0.1975556,-0.019756 0.1037166,-0.00988 0.2024944,-0.014817 0.098778,-0.00494 0.1778001,-0.00494 0.5531557,0 0.8297335,0.2420056 0.2815167,0.2420056 0.2815167,0.721078 z M 4.9325387,2.0902061 q -0.1135945,0 -0.22225,0.00494 -0.1037167,0 -0.1481667,0.00988 v 1.1803947 h 0.2617611 q 0.1778001,0 0.316089,-0.024694 0.1432278,-0.024694 0.2420056,-0.0889 Q 5.4856944,3.1026786 5.5400222,2.9890841 5.59435,2.8705507 5.59435,2.6828729 q 0,-0.1778 -0.054328,-0.2913945 -0.054328,-0.1135945 -0.1432278,-0.1778 -0.0889,-0.069145 -0.2123723,-0.093839 Q 5.0658887,2.0902061 4.9325387,2.0902061 Z M 8.6218895,4.69794 q -0.1728611,0.098778 -0.3704167,0.1432278 -0.1926167,0.049389 -0.4148668,0.049389 -0.2716389,0 -0.5037668,-0.093839 Q 7.1056503,4.69794 6.9377281,4.5053233 6.7698058,4.3077677 6.671028,4.0064954 6.5771891,3.7052231 6.5771891,3.2952953 q 0,-0.3901723 0.098778,-0.6865057 0.1037167,-0.2963334 0.2765778,-0.4988279 0.1728612,-0.2024945 0.404989,-0.3062112 0.2321278,-0.1037167 0.493889,-0.1037167 0.1827389,0 0.3704167,0.049389 0.1926168,0.049389 0.3753557,0.1629834 L 8.4786617,2.2482506 Q 8.152695,2.0605728 7.8662394,2.0605728 q -0.2024945,0 -0.3654779,0.0889 -0.1580445,0.083961 -0.2716389,0.2469445 -0.1135945,0.1629834 -0.1778001,0.3901723 -0.059267,0.2271889 -0.059267,0.5087057 0,0.3160889 0.064206,0.5482168 0.069144,0.2321278 0.1876778,0.3852334 0.1185334,0.1531056 0.2815168,0.2271889 0.1679222,0.074083 0.3605389,0.074083 0.1432278,0 0.3012723,-0.034572 0.1580445,-0.039511 0.3259668,-0.13335 z m 0.889,-1.3186836 H 10.597445 V 3.7644898 H 9.5108895 Z"
       id="path1" />
    <path
       d="m 3.6286718,10.204802 q 0,0.385234 -0.2469445,0.6223 -0.2420056,0.237067 -0.7408335,0.237067 -0.2864557,0 -0.4741335,-0.07408 Q 1.9790825,10.911064 1.865488,10.79253 1.7568325,10.669058 1.7074436,10.520891 q -0.04445,-0.148166 -0.04445,-0.291394 0,-0.2617614 0.1432278,-0.4642559 Q 1.9494492,9.5627467 2.1470048,9.4392744 1.7271991,9.2022077 1.7271991,8.7132576 q 0,-0.1679223 0.064206,-0.3210279 0.064206,-0.1531056 0.1827389,-0.2667 0.1185334,-0.1135945 0.2864556,-0.182739 0.1728612,-0.069144 0.3852335,-0.069144 0.2469445,0 0.4198056,0.074083 0.1778,0.074083 0.2864556,0.1926167 0.1086556,0.1135945 0.1580445,0.2568223 0.049389,0.1382889 0.049389,0.271639 0,0.2617611 -0.13335,0.4543778 -0.1333501,0.1876779 -0.3062112,0.3012723 0.5087057,0.2420056 0.5087057,0.7803443 z m -1.570567,0.02963 q 0,0.07902 0.029633,0.167922 0.029633,0.08396 0.098778,0.158044 0.069144,0.07408 0.1827389,0.123473 0.1135945,0.04445 0.2765779,0.04445 0.1531055,0 0.2617611,-0.03951 0.1135945,-0.04445 0.182739,-0.113595 0.074083,-0.07408 0.1086555,-0.162983 0.034572,-0.0889 0.034572,-0.1778 0,-0.281517 -0.2024945,-0.4296837 Q 2.8285716,9.6516467 2.4729715,9.5726244 2.2754159,9.68128 2.1667603,9.8442634 2.0581048,10.007247 2.0581048,10.234436 Z M 3.1644161,8.6688076 q 0,-0.064206 -0.029633,-0.1432278 -0.029633,-0.083961 -0.093839,-0.1481667 -0.059267,-0.069145 -0.1580445,-0.1135945 -0.098778,-0.049389 -0.2370667,-0.049389 -0.1432279,0 -0.2420057,0.04445 -0.093839,0.04445 -0.1580444,0.1135945 -0.064206,0.064205 -0.093839,0.1481667 -0.024694,0.079022 -0.024694,0.1580445 0,0.2024944 0.1432278,0.3802945 Q 2.4186437,9.231841 2.7544882,9.3108633 2.9421661,9.2022077 3.0508216,9.054041 3.1644161,8.9058743 3.1644161,8.6688076 Z m 2.7904728,0.054328 q 0,0.1580444 -0.064205,0.3062111 Q 5.8314167,9.1775132 5.7277,9.320741 5.6289222,9.4639689 5.5005111,9.6022578 5.3720999,9.7405467 5.2387499,9.8738967 q -0.074083,0.074083 -0.1728612,0.1778003 -0.098778,0.103716 -0.1876778,0.212372 -0.0889,0.108656 -0.1481667,0.212372 -0.059267,0.103717 -0.059267,0.1778 h 1.4075837 v 0.345723 H 4.2262775 q -0.00494,-0.02469 -0.00494,-0.04939 0,-0.02963 0,-0.05433 0,-0.207433 0.069144,-0.385233 0.069145,-0.177801 0.1778001,-0.335845 Q 4.5769386,10.017125 4.7102887,9.8788356 4.8485776,9.7356078 4.9819276,9.6022578 5.0905832,9.4936022 5.189361,9.3898855 5.2930777,9.2861688 5.367161,9.1824521 5.4461833,9.0787354 5.4906333,8.9700799 5.5400222,8.8564854 5.5400222,8.737952 q 0,-0.13335 -0.04445,-0.2271889 -0.039511,-0.093839 -0.1135945,-0.1531056 -0.069145,-0.064206 -0.1629834,-0.093839 -0.093839,-0.029633 -0.2024945,-0.029633 -0.1284111,0 -0.2370667,0.034572 -0.1037167,0.034572 -0.1876778,0.083961 -0.079022,0.049389 -0.1382889,0.098778 -0.059267,0.04445 -0.0889,0.074083 L 4.1620719,8.2391241 q 0.039511,-0.04445 0.1185333,-0.1086555 0.079022,-0.064206 0.1876779,-0.1185334 0.1135944,-0.059267 0.2518833,-0.098778 0.138289,-0.039511 0.2963334,-0.039511 0.4790724,0 0.7062613,0.22225 0.2321278,0.2173112 0.2321278,0.6272391 z M 7.1155281,10.999964 Q 7.1402225,10.649302 7.2390003,10.25913 7.342717,9.8640189 7.4859448,9.4985411 7.6291726,9.1281243 7.8020338,8.8169743 7.9748949,8.5008853 8.1428172,8.2983908 H 6.6611502 V 7.9427907 H 8.5971951 V 8.2835742 Q 8.4490284,8.4564353 8.2761672,8.7478298 8.1033061,9.0392243 7.9452616,9.4047022 7.792156,9.7652411 7.6785615,10.180108 7.5649671,10.590036 7.5353337,10.999964 Z M 10.340623,9.41458 q 0,0.1284111 -0.07902,0.22225 -0.07408,0.093839 -0.197556,0.093839 -0.128411,0 -0.2074332,-0.093839 -0.079022,-0.093839 -0.079022,-0.22225 0,-0.1284112 0.079022,-0.227189 0.079022,-0.098778 0.2074332,-0.098778 0.123472,0 0.197556,0.098778 0.07902,0.098778 0.07902,0.227189 z m -1.2939892,0.054328 q 0,-0.7704668 0.2617612,-1.1803947 0.2667001,-0.4148667 0.745772,-0.4148667 0.484012,0 0.745773,0.4148667 0.261761,0.4099279 0.261761,1.1803947 0,0.7704673 -0.261761,1.1853333 -0.261761,0.409928 -0.745773,0.409928 -0.4790719,0 -0.745772,-0.409928 Q 9.0466338,10.239375 9.0466338,9.4689077 Z m 1.6002002,0 q 0,-0.2518833 -0.02963,-0.4741334 -0.02963,-0.2271889 -0.09878,-0.3951112 -0.06914,-0.1679222 -0.182739,-0.2667 -0.113594,-0.098778 -0.281517,-0.098778 -0.1679219,0 -0.2815163,0.098778 -0.1135945,0.098778 -0.182739,0.2667 -0.069144,0.1679223 -0.098778,0.3951112 -0.029633,0.2222501 -0.029633,0.4741334 0,0.2518834 0.029633,0.4790724 0.029633,0.2222499 0.098778,0.3901719 0.069145,0.167923 0.182739,0.2667 0.1135944,0.09878 0.2815163,0.09878 0.167923,0 0.281517,-0.09878 0.113595,-0.09878 0.182739,-0.2667 0.06914,-0.167922 0.09878,-0.3901719 0.02963,-0.227189 0.02963,-0.4790724 z"
       id="path2" />
  </g>
</svg>
